<?xml version="1.0" standalone="no"?><!DOCTYPE svg PUBLIC "-//W3C//DTD SVG 1.1//EN" "http://www.w3.org/Graphics/SVG/1.1/DTD/svg11.dtd"><svg t="1573036381190" class="icon" viewBox="0 0 1024 1024" version="1.1" xmlns="http://www.w3.org/2000/svg" p-id="1876" xmlns:xlink="http://www.w3.org/1999/xlink" width="32" height="32"><defs><style type="text/css"></style></defs><path d="M688.355556 352.711111h34.133333c-28.444444-142.222222-182.044444-250.311111-358.4-250.311111C170.666667 108.088889 11.377778 238.933333 11.377778 403.911111c0 96.711111 51.2 176.355556 142.222222 238.933333l-34.133333 108.088889 125.155555-62.577777c45.511111 11.377778 79.644444 17.066667 125.155556 17.066666h34.133333c-5.688889-22.755556-11.377778-45.511111-11.377778-73.955555-5.688889-153.6 130.844444-278.755556 295.822223-278.755556M500.622222 256c28.444444 0 45.511111 17.066667 45.511111 45.511111-5.688889 22.755556-22.755556 39.822222-45.511111 39.822222-28.444444 0-56.888889-17.066667-56.888889-39.822222 0-28.444444 28.444444-45.511111 56.888889-45.511111M250.311111 341.333333c-22.755556 0-51.2-17.066667-51.2-39.822222 0-28.444444 28.444444-45.511111 51.2-45.511111 28.444444 0 45.511111 17.066667 45.511111 45.511111 0 22.755556-17.066667 39.822222-45.511111 39.822222m762.311111 284.444445c0-142.222222-142.222222-256-301.511111-256-170.666667 0-301.511111 113.777778-301.511111 256s130.844444 256 301.511111 256c34.133333 0 68.266667-11.377778 108.088889-17.066667l96.711111 51.2-28.444444-91.022222c68.266667-45.511111 125.155556-119.466667 125.155555-199.111111m-398.222222-45.511111c-17.066667 0-34.133333-17.066667-34.133333-34.133334s17.066667-34.133333 34.133333-34.133333c28.444444 0 45.511111 17.066667 45.511111 34.133333s-17.066667 34.133333-45.511111 34.133334m193.422222 0c-17.066667 0-34.133333-17.066667-34.133333-34.133334s17.066667-34.133333 34.133333-34.133333c28.444444 0 45.511111 17.066667 45.511111 34.133333s-17.066667 34.133333-45.511111 34.133334m0 0z" p-id="1877" fill="#e6e6e6"></path></svg>