<?xml version="1.0" standalone="no"?><!DOCTYPE svg PUBLIC "-//W3C//DTD SVG 1.1//EN" "http://www.w3.org/Graphics/SVG/1.1/DTD/svg11.dtd"><svg t="1574046551264" class="icon" viewBox="0 0 1024 1024" version="1.1" xmlns="http://www.w3.org/2000/svg" p-id="3185" xmlns:xlink="http://www.w3.org/1999/xlink" width="32" height="32"><defs><style type="text/css"></style></defs><path d="M512 0c282.8 0 512 229.2 512 512s-229.2 512-512 512S0 794.8 0 512 229.2 0 512 0z m-0.2 205c-34 0-76.1 9.3-105.6 51.4-31.2 44.5-28 120-28 120s-16.2 17.8-8 43.6 22 26.8 22 26.8 7.8 33.5 20.1 43.7c12.3 10.2 24.8 18.5 26.3 36.4 2 23.8 2.3 38.3-29.5 58.7-40.3 25.9-140.8 19.5-149.2 76-7.3 49.1-1 82.4 6.5 88.4 13.6 10.8 173.8 54.7 239.9 55 66.1 0.2 241.9-44.2 253.3-60.7 11.4-16.5 9.6-69.5 2.1-93.1-13-40.3-98.3-44.7-135.7-60-41.9-17.1-45-43.9-41.1-66.2 3.3-19 12.4-22.9 26.6-34.6 12.3-10.2 20-43.7 20-43.7s20.5-4.5 24.1-36.6c2.8-24.7-10.2-33.3-10.2-33.3s4.3-79.5-33.9-127.8c-17.2-21.4-55.7-44-99.7-44z m18.1 394.3s24.7 16.5 20.3 26.2c-3.6 7.9-8.1 13.8-12.9 18.1 2.7 12.1 13.3 61.1 13.3 70.7 0 8.1-26.9 44.8-34.6 44.8-7.9 0-38.5-38.5-38.5-45.8 0-14 13.1-63.3 15.3-71.2-3.3-4.6-6.4-10.1-9.8-17-4.1-8.4 18.6-25.8 18.6-25.8h28.3z" fill="#0BBB08" p-id="3186"></path></svg>