<?xml version="1.0" standalone="no"?><!DOCTYPE svg PUBLIC "-//W3C//DTD SVG 1.1//EN" "http://www.w3.org/Graphics/SVG/1.1/DTD/svg11.dtd"><svg t="1616462245174" class="icon" viewBox="0 0 1024 1024" version="1.1" xmlns="http://www.w3.org/2000/svg" p-id="2820" xmlns:xlink="http://www.w3.org/1999/xlink" width="128" height="128"><defs><style type="text/css"></style></defs><path d="M381.594 153.6c161.28 0 304.332 100.3 332.85 233.37a13.62 13.62 0 0 1 0.052 4.761C856.832 402.841 972.8 509.338 972.8 634.368c0 65.894-25.344 124.672-95.386 180.02l7.834 76.8a14.438 14.438 0 0 1-4.762 15.36 14.336 14.336 0 0 1-15.872 1.433l-81.817-44.698c-28.826 7.168-61.03 14.848-92.826 14.848-124.006 0-229.376-69.12-267.673-164.761a14.336 14.336 0 0 1-9.933 5.427 380.211 380.211 0 0 1-30.771 1.28c-34.765 0-62.976-5.786-95.59-12.544l-13.057-2.663-106.086 53.095a14.592 14.592 0 0 1-15.872-1.946 14.49 14.49 0 0 1-4.25-15.513l28.263-84.89C93.952 596.07 51.2 520.55 51.2 436.787 51.2 280.576 199.424 153.6 381.594 153.6z m308.48 285.184c-140.288 0-235.008 77.005-235.008 195.482 0 118.528 94.72 195.584 235.008 195.584 30.208 0 61.235-7.834 91.187-15.412a14.234 14.234 0 0 1 10.445 1.332l47.718 35.84-5.427-50.586a14.438 14.438 0 0 1 5.12-15.616c67.584-50.893 85.504-92.006 85.504-151.142 0-116.48-96.922-195.43-234.496-195.43z m-308.48-236.902c-166.298 0-282.164 94.72-282.164 234.956 0 78.03 40.448 145.818 120.32 201.472a14.336 14.336 0 0 1 5.376 16.333l-24.524 47.258 63.948-44.39a14.029 14.029 0 0 1 9.216-1.28l18.125 3.686c31.079 6.4 58.01 11.93 89.754 11.93a317.44 317.44 0 0 0 28.313-1.23l-1.126-6.604c-2.253-13.159-2.048-12.698-2.048-29.696 0-133.069 105.318-241.408 259.482-243.456-26.88-118.989-137.626-188.98-284.672-188.98z m215.961 340.48c23.808 0 39.475 15.872 39.475 31.744s-15.667 31.59-39.424 31.59c-15.872 0-31.641-15.718-31.641-31.642 0-15.77 15.82-31.692 31.59-31.692z m173.722 0c23.705 0 39.68 15.872 39.68 31.744s-16.026 31.59-39.68 31.59c-15.565 0-31.386-15.718-31.386-31.642 0-15.77 15.821-31.692 31.386-31.692z m-276.48-229.12c23.757 0 39.577 15.513 39.577 39.424 0 23.603-15.872 39.424-39.577 39.424s-47.514-15.821-47.514-39.424c0-23.91 23.808-39.424 47.514-39.424z m-221.133 0c23.654 0 39.424 15.513 39.424 39.424 0 23.603-15.77 39.424-39.424 39.424-23.706 0-47.616-15.821-47.616-39.424 0-23.91 23.91-39.424 47.616-39.424z" fill="#daa520" p-id="2821"></path></svg>