<?xml version="1.0" standalone="no"?><!DOCTYPE svg PUBLIC "-//W3C//DTD SVG 1.1//EN" "http://www.w3.org/Graphics/SVG/1.1/DTD/svg11.dtd"><svg t="1616833741889" class="icon" viewBox="0 0 1024 1024" version="1.1" xmlns="http://www.w3.org/2000/svg" p-id="7903" xmlns:xlink="http://www.w3.org/1999/xlink" width="128" height="128"><defs><style type="text/css"></style></defs><path d="M827.64 680.72H779V778h-1.94l48.51 48.64h2.07zM748.28 729.36h-19.72l19.72 19.78zM779 598.8h48.64v48.64H779zM359.16 260.88h-97.28v0.53l96.49 96.75h0.79zM680.05 680.72l17.03 17.08v-17.08zM697.08 501.52h48.64v48.64h-48.64zM584.44 470.8h48.64v48.64h-48.64zM584.44 519.44H535.8v16.64l31.91 32h16.73zM745.72 598.8h-48.64v-48.64h-48.64v48.64H599.8v1.45l47.06 47.19h98.86z" p-id="7904"></path><path d="M438.52 181.52h-256v0.31l30.72 30.81v-0.4H407.8V406.8h-0.92l33.18 33.28h1.02zM779 488.72h48.64v46.08H779zM487.16 324.88h48.64v48.64h-48.64zM663.8 260.88h97.28v97.28H663.8zM487.16 406.8h48.64v48.64h-48.64zM487.16 196.88h48.64v97.28h-48.64z" p-id="7905"></path><path d="M843 181.52H584.44v258.56H843V181.52zM809.72 406.8H615.16V212.24h194.56V406.8z" p-id="7906"></path></svg>